<?xml version="1.0" encoding="UTF-8"?>
<svg id="Layer_1" data-name="Layer 1" xmlns="http://www.w3.org/2000/svg" viewBox="0 0 1782.23 752.05">
  <defs>
    <style>
      .cls-1 {
        fill: #fff;
      }

      .cls-2 {
        fill: #b87333;
      }
    </style>
  </defs>
  <rect class="cls-1" x=".38" width="1781.48" height="752.05"/>
  <g>
    <path class="cls-2" d="M672.41,361.83l-28.61-29.17-21.14-21.55-8.95-9.14v-107.72h-105.64l-38.04-38.78-21.12-21.53-23.76,22.4-40.49,37.92h-119.68v32.3h0v80.86l-11.16,10.52-35.22,33.22-23.88,22.52,21.14,21.55,35.94,36.66,13.17,13.42v112.21h110.05l14.59,14.88,28.61,29.17,22.91,23.36,23.88-22.52,35.22-33.22,12.39-11.67h101.07v-95.33h0l20.93-19.76,36.93-34.83,23.76-22.4-22.91-23.36ZM505.13,237.88l12.02-11.34h66.33v44.61l-19.23-19.6-23.73,22.4-36.95,34.85-22.87,21.57-33.66,31.74-35.37-36.09,33.64-31.74,22.89-21.57,36.93-34.83ZM386.46,234.28l8.21-7.74,14.66-13.83,19.58-18.46,17.37-16.39,16.06,16.39,19.89,20.28-12.74,12.02-24.19,22.83-22.87,21.57-33.66,31.74-35.96-36.66,33.66-31.74ZM296.36,226.54h54.34l-19.02,17.93-24.68,23.28,21.14,21.55,35.94,36.64,22.91,23.36,35.39,36.06-28.68,27.05-35.37-36.09-22.91-23.34-35.96-36.66-3.11-3.12v-86.67ZM275.67,409.36l-10.7-10.93-25.24-25.73,25.24-23.82,9.96-9.41,21.43,21.84,14.53,14.82,22.91,23.34,35.37,36.09-35.2,33.22-35.39-36.09-2.22-2.26h0l-20.69-21.08ZM395.68,525.19h-99.32v-47.88l13.73,14,22.66,23.12,23.88-22.52,35.22-33.22,24.54-23.14,28.65-27.03,35.74,36.42-28.67,27.03-24.54,23.16-31.89,30.07h0ZM501.86,522.7l-2.66,2.49-21.88,20.65-12.39,11.67-22.83,21.53-21.12-21.53-7.49-7.64,26.16-24.68,9.06-8.54,24.54-23.14,28.65-27.03,28.61,29.17-28.65,27.05ZM583.48,525.19h-36.6l6.55-6.18,24.68-23.28-22.91-23.34-28.61-29.19-21.14-21.53-35.72-36.44,33.66-31.74,35.72,36.44,21.14,21.53,23.24,23.71v90.02ZM613.7,417.2l-1.98,1.87h0l-28.24-28.8-.37-.39-21.14-21.53-35.72-36.44,36.93-34.85,20.3,20.71,15.44,15.73,14.78,15.07,6.34,6.48,28.61,29.17-34.95,32.98Z"/>
    <path class="cls-2" d="M795.49,555.93c-3.93,1.86-8.46,2.79-13.59,2.79-4.67,0-8.99-.8-12.95-2.39-3.96-1.59-7.39-3.85-10.3-6.77-2.91-2.92-5.18-6.42-6.84-10.49s-2.48-8.55-2.48-13.45.84-9.56,2.52-13.63c1.68-4.07,4-7.54,6.97-10.4,2.96-2.86,6.44-5.06,10.43-6.59,3.99-1.53,8.29-2.3,12.9-2.3,4.27,0,8.48.78,12.61,2.35,4.13,1.56,7.48,3.85,10.04,6.86l-9.91,10.27c-1.37-1.95-3.16-3.39-5.38-4.34-2.22-.94-4.5-1.41-6.84-1.41-2.57,0-4.92.48-7.05,1.46s-3.97,2.32-5.51,4.03c-1.54,1.71-2.74,3.73-3.59,6.06-.85,2.33-1.28,4.88-1.28,7.66s.43,5.43,1.28,7.79c.86,2.36,2.04,4.38,3.55,6.06,1.51,1.68,3.32,3,5.43,3.94,2.11.94,4.41,1.42,6.92,1.42,2.91,0,5.44-.59,7.61-1.77,2.16-1.18,3.9-2.71,5.21-4.6l10.17,9.91c-2.68,3.19-5.98,5.71-9.91,7.57Z"/>
    <path class="cls-2" d="M877.23,525.44c0,4.96-.77,9.49-2.32,13.58-1.55,4.1-3.7,7.61-6.45,10.53-2.75,2.92-6.02,5.18-9.82,6.77-3.79,1.59-7.91,2.39-12.34,2.39s-8.54-.8-12.3-2.39c-3.77-1.59-7.03-3.85-9.78-6.77s-4.9-6.43-6.45-10.53c-1.55-4.1-2.32-8.63-2.32-13.58s.77-9.54,2.32-13.58c1.55-4.04,3.7-7.48,6.45-10.31,2.75-2.83,6.01-5.01,9.78-6.55,3.77-1.53,7.87-2.3,12.3-2.3s8.55.77,12.34,2.3c3.79,1.53,7.06,3.72,9.82,6.55,2.75,2.83,4.9,6.27,6.45,10.31,1.55,4.04,2.32,8.57,2.32,13.58ZM862.56,525.44c0-2.71-.4-5.25-1.2-7.61-.8-2.36-1.91-4.38-3.33-6.06s-3.12-3.01-5.13-3.98c-2-.97-4.21-1.46-6.61-1.46s-4.6.49-6.57,1.46c-1.98.97-3.69,2.3-5.13,3.98s-2.55,3.7-3.33,6.06c-.78,2.36-1.16,4.9-1.16,7.61s.4,5.44,1.2,7.83,1.91,4.44,3.33,6.15c1.41,1.71,3.11,3.05,5.09,4.03,1.98.97,4.17,1.46,6.57,1.46s4.59-.49,6.57-1.46c1.98-.97,3.69-2.31,5.13-4.03,1.44-1.71,2.57-3.76,3.37-6.15.8-2.39,1.2-5,1.2-7.83Z"/>
    <path class="cls-2" d="M1015.42,557.23l.29-44.34h-.22l-17.42,30.44h0l-18.27-30.44h-.22l.3,44.34h-11.9v-62.66h12.84l17.26,28h0l18.22-28h11.54v62.66h-12.41Z"/>
    <path class="cls-2" d="M938.67,557.23l.29-44.34h-.22l-17.42,30.44h0l-18.27-30.44h-.22l.3,44.34h-11.9v-62.66h12.84l17.26,28h0l18.22-28h11.54v62.66h-12.41Z"/>
    <path class="cls-2" d="M1045.14,557.04v-62.66h36.95v12.74h-24.14v11.86h22.82v12.13h-22.82v13.01h25.54v12.92h-38.34Z"/>
    <path class="cls-2" d="M1132.66,557.04l-13.4-24.33h-5.08v24.33h-14.56v-62.66h23.54c2.96,0,5.85.31,8.67.93,2.82.62,5.35,1.67,7.58,3.14,2.24,1.47,4.02,3.42,5.36,5.84,1.34,2.42,2,5.43,2,9.03,0,4.25-1.13,7.82-3.4,10.71-2.27,2.89-5.4,4.96-9.41,6.2l16.13,26.81h-17.44ZM1132.05,513.59c0-1.47-.31-2.67-.92-3.58-.61-.92-1.4-1.62-2.37-2.13-.96-.5-2.04-.84-3.24-1.02-1.2-.18-2.35-.26-3.46-.26h-7.97v14.6h7.09c1.23,0,2.48-.1,3.77-.31,1.28-.21,2.45-.57,3.5-1.11s1.91-1.3,2.58-2.3c.67-1,1.01-2.3,1.01-3.89Z"/>
    <path class="cls-2" d="M1203.03,555.93c-3.7,1.86-7.96,2.79-12.78,2.79-4.4,0-8.46-.8-12.18-2.39-3.73-1.59-6.95-3.85-9.69-6.77-2.73-2.92-4.88-6.42-6.43-10.49-1.55-4.07-2.33-8.55-2.33-13.45s.79-9.56,2.37-13.63c1.58-4.07,3.77-7.54,6.55-10.4,2.78-2.86,6.06-5.06,9.81-6.59,3.75-1.53,7.8-2.3,12.14-2.3,4.02,0,7.97.78,11.86,2.35,3.89,1.56,7.04,3.85,9.45,6.86l-9.33,10.27c-1.29-1.95-2.98-3.39-5.07-4.34-2.09-.94-4.24-1.41-6.43-1.41-2.41,0-4.62.48-6.63,1.46s-3.74,2.32-5.19,4.03c-1.45,1.71-2.57,3.73-3.38,6.06-.8,2.33-1.2,4.88-1.2,7.66s.4,5.43,1.2,7.79c.8,2.36,1.92,4.38,3.34,6.06,1.42,1.68,3.12,3,5.11,3.94,1.98.94,4.15,1.42,6.51,1.42,2.73,0,5.12-.59,7.16-1.77,2.04-1.18,3.67-2.71,4.9-4.6l9.57,9.91c-2.52,3.19-5.63,5.71-9.33,7.57Z"/>
    <path class="cls-2" d="M1226.71,557.04v-62.66h10.85v62.66h-10.85Z"/>
    <path class="cls-2" d="M1296.11,557.04l-4.43-10.5h-22.06l-4.19,10.5h-14.98l23.92-62.66h13.37l23.68,62.66h-15.3ZM1280.81,511.11l-7.25,22.84h14.33l-7.09-22.84Z"/>
    <path class="cls-2" d="M1323.93,557.04v-62.66h12.67v51.52h25.34v11.13h-38.01Z"/>
    <path class="cls-2" d="M1441.71,557.04v-26.2h-24.42v26.2h-15.13v-62.66h15.13v23.72h24.42v-23.72h15.13v62.66h-15.13Z"/>
    <path class="cls-2" d="M1522.37,543.72c-1.18,3.1-2.86,5.75-5.05,7.96-2.19,2.21-4.83,3.94-7.92,5.18-3.09,1.24-6.52,1.86-10.3,1.86s-7.28-.62-10.34-1.86c-3.07-1.24-5.66-2.96-7.8-5.18-2.13-2.21-3.77-4.87-4.92-7.96-1.15-3.1-1.72-6.53-1.72-10.31v-39.03h13.95v37.79c0,1.71.21,3.33.62,4.87.41,1.53,1.04,2.91,1.89,4.11.85,1.21,1.97,2.17,3.36,2.88,1.4.71,3.08,1.06,5.05,1.06s3.65-.35,5.05-1.06c1.4-.71,2.53-1.67,3.41-2.88.87-1.21,1.5-2.58,1.89-4.11.38-1.53.57-3.16.57-4.87v-37.79h14.03v39.03c0,3.78-.59,7.21-1.76,10.31Z"/>
    <path class="cls-2" d="M1587.52,538.81c0,3.42-.63,6.3-1.88,8.63-1.25,2.33-2.91,4.2-4.98,5.62-2.07,1.42-4.42,2.43-7.06,3.05-2.64.62-5.35.93-8.13.93h-23.03v-62.66h23.03c2.23,0,4.52.25,6.86.75,2.34.5,4.46,1.36,6.37,2.57,1.9,1.21,3.46,2.85,4.66,4.91,1.2,2.07,1.8,4.69,1.8,7.88,0,3.48-.87,6.36-2.61,8.63-1.74,2.27-4.03,3.91-6.86,4.91v.18c1.63.3,3.17.84,4.61,1.64,1.44.8,2.7,1.82,3.76,3.05,1.06,1.24,1.91,2.69,2.53,4.34.62,1.65.94,3.51.94,5.58ZM1571.68,512.52c0-2.13-.75-3.67-2.25-4.65s-3.72-1.46-6.66-1.46h-6.86v12.92h7.51c2.61,0,4.64-.57,6.08-1.72,1.44-1.15,2.16-2.85,2.16-5.09ZM1573.56,537.39c0-2.6-.9-4.4-2.7-5.4-1.8-1-4.19-1.5-7.19-1.5h-7.76v14.34h7.84c1.09,0,2.22-.1,3.39-.31,1.17-.21,2.23-.57,3.19-1.11.95-.53,1.73-1.28,2.33-2.26.6-.97.9-2.23.9-3.76Z"/>
    <path class="cls-2" d="M892.84,421.5l-94.35-147.67h-.89l1.19,147.67h-49.41v-226.79h48.22l94.35,147.36h.89l-1.19-147.36h49.41v226.79h-48.22Z"/>
    <path class="cls-2" d="M1152.85,421.5l-15.55-45.78h-93.95l-14.71,45.78h-44.37l83.99-226.79h43.24l86.84,226.79h-45.5ZM1089.12,246.37l-31.93,86.26h66.8l-34.88-86.26Z"/>
    <path class="cls-2" d="M1334.42,367.39c-1.76,9.56-5,18.34-9.73,26.34-4.72,8-11.3,14.6-19.73,19.79-8.43,5.19-19.31,7.79-32.65,7.79-16.67,0-30.57-4.83-41.68-14.49-11.11-9.66-18.52-22.08-22.23-37.25l41.95-15.9c1.29,5.82,3.66,10.5,7.09,14.03,3.43,3.54,7.64,5.3,12.64,5.3,7.78,0,19.09-3.01,21.59-9.04,2.5-6.02,3.75-13.92,3.75-23.69v-145.56h41.61v145.25c0,8.73-.88,17.87-2.64,27.43Z"/>
    <path class="cls-2" d="M1587.52,307.46c0,19.86-3.39,37-10.16,51.41-6.77,14.41-15.71,26.27-26.81,35.56-11.1,9.29-23.62,16.13-37.56,20.5-13.95,4.38-28.08,6.57-42.42,6.57h-77.77v-226.79h75.41c14.73,0,29.26,1.87,43.6,5.61,14.33,3.74,27.1,9.93,38.29,18.58,11.2,8.65,20.23,20.23,27.1,34.76,6.87,14.52,10.31,32.46,10.31,53.81ZM1535.09,307.46c0-12.81-1.91-23.43-5.74-31.87-3.83-8.43-8.94-15.16-15.32-20.18-6.38-5.02-13.65-8.59-21.8-10.73-8.15-2.13-16.54-3.2-25.18-3.2h-25.04v132.61h23.86c9.03,0,17.72-1.12,26.07-3.36,8.35-2.24,15.71-5.93,22.09-11.05,6.38-5.13,11.49-11.96,15.32-20.5,3.83-8.54,5.74-19.11,5.74-31.71Z"/>
  </g>
</svg>