<?xml version="1.0" encoding="UTF-8"?>
<svg id="Layer_1" data-name="Layer 1" xmlns="http://www.w3.org/2000/svg" viewBox="0 0 1782.23 752.05">
  <defs>
    <style>
      .cls-1 {
        fill: #f4f3eb;
      }

      .cls-2 {
        fill: #b87333;
      }
    </style>
  </defs>
  <rect class="cls-1" width="1782.23" height="752.05"/>
  <g>
    <path class="cls-2" d="M1564.52,358.42l-28.61-29.17-21.14-21.55-8.95-9.14v-107.72h-105.64l-38.04-38.78-21.12-21.53-23.76,22.4-40.49,37.92h-119.68v32.3h0v80.86l-11.16,10.52-35.22,33.22-23.88,22.52,21.14,21.55,35.94,36.66,13.17,13.42v112.21h110.05l14.59,14.88,28.61,29.17,22.91,23.36,23.88-22.52,35.22-33.22,12.39-11.67h101.07v-95.33h0l20.93-19.76,36.93-34.83,23.76-22.4-22.91-23.36ZM1397.25,234.48l12.02-11.34h66.33v44.61l-19.23-19.6-23.73,22.4-36.95,34.85-22.87,21.57-33.66,31.74-35.37-36.09,33.64-31.74,22.89-21.57,36.93-34.83ZM1278.57,230.88l8.21-7.74,14.66-13.83,19.58-18.46,17.37-16.39,16.06,16.39,19.89,20.28-12.74,12.02-24.19,22.83-22.87,21.57-33.66,31.74-35.96-36.66,33.66-31.74ZM1188.47,223.14h54.34l-19.02,17.93-24.68,23.28,21.14,21.55,35.94,36.64,22.91,23.36,35.39,36.06-28.68,27.05-35.37-36.09-22.91-23.34-35.96-36.66-3.11-3.12v-86.67ZM1167.79,405.96l-10.7-10.93-25.24-25.73,25.24-23.82,9.96-9.41,21.43,21.84,14.53,14.82,22.91,23.34,35.37,36.09-35.2,33.22-35.39-36.09-2.22-2.26h0l-20.69-21.08ZM1287.8,521.79h-99.32v-47.88l13.73,14,22.66,23.12,23.88-22.52,35.22-33.22,24.54-23.14,28.65-27.03,35.74,36.42-28.67,27.03-24.54,23.16-31.89,30.07h0ZM1393.97,519.3l-2.66,2.49-21.88,20.65-12.39,11.67-22.83,21.53-21.12-21.53-7.49-7.64,26.16-24.68,9.06-8.54,24.54-23.14,28.65-27.03,28.61,29.17-28.65,27.05ZM1475.59,521.79h-36.6l6.55-6.18,24.68-23.28-22.91-23.34-28.61-29.19-21.14-21.53-35.72-36.44,33.66-31.74,35.72,36.44,21.14,21.53,23.24,23.71v90.02ZM1505.81,413.8l-1.98,1.87h0l-28.24-28.8-.37-.39-21.14-21.53-35.72-36.44,36.93-34.85,20.3,20.71,15.44,15.73,14.78,15.07,6.34,6.48,28.61,29.17-34.95,32.98Z"/>
    <g>
      <path class="cls-2" d="M1032.2,354.03l-31.77,49.14H194.8v-49.64h190.07s7.45-48.64-36.73-49.39c0,0-76.54.61-121.17.87-11.09.07-22.06.12-32.17.13v-51.87h163.77s70.98-2.98,71.97,73.46v26.3h414.53s-30.09-24.7-38.57-38.21l6.5-9.92,26.05-39.7c6.74,11.06,24.8,38.05,49.95,55.07.28,0,30.94-.09,30.94-39.95l.25-65.93,47.65-9.27v66.51s1.82,64.53-75.12,51.62c0,0,28.3,32.76,71.97,30.78h67.51Z"/>
      <path class="cls-2" d="M840.7,445.19l19.54-22.07,12.28,9.37c2.41,1.84,4.17,4.45,4.81,7.41.72,3.35.27,7.64-4.43,11.44l-13.75,10.49-18.45-16.64Z"/>
      <path class="cls-2" d="M915.6,175.09l26.88-30.36,16.9,12.89c3.32,2.53,5.74,6.12,6.62,10.2,1,4.6.37,10.52-6.1,15.74l-18.91,14.44-25.39-22.9Z"/>
    </g>
    <g>
      <path class="cls-2" d="M236.75,534.41c-.98-4.37-2.47-6.42-3.91-6.42-2.26,0-5.45,1.49-8.17,3.65-2.88,2.26-5.04,4.78-5.04,6.63,0,4.57,13.36,4.01,16.96,6.94,1.34,1.23,2.26,2.88,2.26,5.76,0,2.72-1.85,7.25-4.21,9.51-5.04,4.73-12.9,8.53-19.84,8.53-11.97,0-17.78-8.07-17.78-18.86,0-4.78,1.08-8.89,2.72-12.69l2,.67c-1.13,3.44-1.59,6.37-1.59,8.99,0,9.71,6.63,14.96,15.11,14.96,3.19,0,8.69-1.23,13.88-4.27,3.29-1.95,6.37-4.37,6.37-5.14,0-1.54-3.75-2.72-8.02-3.34-4.52-.67-8.07-1.64-9.4-3.13-1.08-1.18-1.9-2.62-1.9-4.62,0-5.19,2.21-9.56,5.71-13.21,3.6-3.7,9.2-7.3,12.75-7.3,1.64,0,2.83.82,3.75,2.72.82,1.75,1.23,3.44,1.23,4.83,0,1.23-1.23,3.91-2.11,5.7l-.77.1ZM212.55,584.62c-2.11-2-3.96-3.65-6.01-5.34,1.34-1.85,2.78-3.55,4.06-4.88,2.11,1.64,3.85,3.34,5.86,5.5-1.44,2.06-2.47,3.39-3.91,4.73ZM222.47,583.95c-2.11-2-3.96-3.65-6.01-5.34,1.34-1.85,2.77-3.55,4.06-4.88,2.11,1.64,3.85,3.34,5.86,5.5-1.44,2.06-2.47,3.39-3.91,4.73Z"/>
      <path class="cls-2" d="M273.21,527.57l3.65,6.94c1.34,2.57,2.57,5.34,2.57,9.76v5.65c0,4.57-2.47,9.46-6.48,14.29-3.13,3.29-5.91,4.68-8.48,4.68-3.8,0-8.17-1.39-13.21-3.96l.57-1.75c1.59.51,3.44.92,5.7.92,7.25-.05,14.65-6.27,18.04-13.88.41-.87.57-1.7.57-2.26,0-.87-.41-1.85-.72-2.72-1.85-4.11-3.91-7.86-6.17-11.31,1.18-2.21,2.36-4.32,3.65-6.42l.31.05Z"/>
      <path class="cls-2" d="M319.79,554.09c-5.96,0-10.56-1.93-13.79-5.79-2.67-3.3-4-7.47-4-12.52v-45.88l7.05-3.68v49.36c0,8,3.86,12,11.58,12h3.68v6.52h-4.53Z"/>
      <path class="cls-2" d="M526.81,547.57h3.68v6.52h-3.79c-5.82,0-10.47-.67-13.94-2-3.47-1.33-6.68-3.68-9.63-7.05-8.98,6.04-19.36,9.05-31.15,9.05h-151.68v-6.52h151.79c15.29,0,27.22-5.19,35.78-15.58-6.25-11.93-13.79-17.89-22.63-17.89-6.03,0-11.93,3.05-17.68,9.16v-6.95c5.75-5.68,11.75-8.52,18-8.52h.21c11.01,0,20.56,7.44,28.62,22.31v4.31c-2.18,2.81-4.49,5.23-6.95,7.26,2.24,2.18,4.79,3.7,7.63,4.58,2.84.88,6.75,1.32,11.73,1.32ZM488.09,565.14c2.74,0,4.1,1.4,4.1,4.21,0,2.95-1.37,4.42-4.1,4.42-2.88,0-4.31-1.47-4.31-4.42s1.44-4.21,4.31-4.21Z"/>
      <path class="cls-2" d="M530.38,554.09v-6.52h63.68c7.72,0,11.58-4,11.58-12v-22.84l7.05-3.68v26.73c0,5.89-1.72,10.49-5.16,13.79-3.16,3.02-7.37,4.53-12.63,4.53h-64.53ZM596.69,495.16c-2.88,0-4.31-1.47-4.31-4.42s1.44-4.21,4.31-4.21,4.1,1.4,4.1,4.21c0,2.95-1.37,4.42-4.1,4.42ZM608.69,495.16c-2.88,0-4.31-1.47-4.31-4.42s1.44-4.21,4.31-4.21,4.1,1.4,4.1,4.21c0,2.95-1.37,4.42-4.1,4.42Z"/>
      <path class="cls-2" d="M736.21,547.57h3.68v6.52h-4.53c-4.35,0-7.96-1.05-10.84-3.16-.56,11.65-5.26,19.01-14.1,22.1-2.25.77-4.63,1.16-7.16,1.16-4.07,0-8-.98-11.79-2.95v-6.21c3.58,1.96,7.23,2.95,10.94,2.95,2.95,0,5.54-.67,7.79-2,4.91-2.95,7.37-8.46,7.37-16.52v-36.73l6.95-3.68v.11l.11-.11v26.52c0,8,3.86,12,11.58,12ZM720.43,495.16c-2.88,0-4.31-1.47-4.31-4.42s1.44-4.21,4.31-4.21,4.1,1.4,4.1,4.21c0,2.95-1.37,4.42-4.1,4.42Z"/>
      <path class="cls-2" d="M877.36,510.63c.7-.07,1.44-.11,2.21-.11,6.31,0,11.72,1.54,16.21,4.63,6.17,4.42,9.26,10.73,9.26,18.94v2c0,5.89-1.83,10.49-5.47,13.79-3.16,2.81-7.26,4.21-12.31,4.21h-149.52v-6.52h148.78c7.65,0,11.47-4.1,11.47-12.31v-1.05c0-5.68-2.04-9.93-6.1-12.73-3.37-2.53-7.65-3.79-12.84-3.79-3.79,0-7.54.67-11.26,2v-6.95l23.89-26.52h7.26l-21.57,24.42Z"/>
      <path class="cls-2" d="M953.36,547.57h3.68v6.52h-4.53c-4.35,0-7.96-1.05-10.84-3.16-.56,11.65-5.26,19.01-14.1,22.1-2.25.77-4.63,1.16-7.16,1.16-4.07,0-8-.98-11.79-2.95v-6.21c3.58,1.96,7.23,2.95,10.94,2.95,2.95,0,5.54-.67,7.79-2,4.91-2.95,7.37-8.46,7.37-16.52v-36.73l6.95-3.68v.11l.11-.11v26.52c0,8,3.86,12,11.58,12Z"/>
      <path class="cls-2" d="M994.4,525.89c0-5.96,1.79-10.59,5.37-13.89,3.09-2.81,7.16-4.21,12.21-4.21,6.52,0,11.54,2.39,15.05,7.16,3.02,4.07,4.53,9.4,4.53,16,0,7.51-1.93,13.37-5.79,17.58-3.37,3.72-7.75,5.58-13.16,5.58-6.6,0-11.51-2.1-14.73-6.31-3.16,4.21-7.89,6.31-14.21,6.31h-28.53v-6.52h27.68c7.72,0,11.58-4,11.58-12v-9.68ZM1001.45,535.99c0,7.72,3.79,11.58,11.37,11.58,3.65,0,6.52-1.47,8.63-4.42,2.11-2.95,3.16-7.05,3.16-12.31s-1.1-9.26-3.31-12.21c-2.21-2.95-5.31-4.42-9.31-4.42-7.02,0-10.52,4.1-10.52,12.31v9.47Z"/>
    </g>
  </g>
</svg>