<?xml version="1.0" standalone="no"?>
<!DOCTYPE svg PUBLIC "-//W3C//DTD SVG 20010904//EN"
 "http://www.w3.org/TR/2001/REC-SVG-20010904/DTD/svg10.dtd">
<svg version="1.0" xmlns="http://www.w3.org/2000/svg"
 width="1024.000000pt" height="1024.000000pt" viewBox="0 0 1024.000000 1024.000000"
 preserveAspectRatio="xMidYMid meet">

<g transform="translate(0.000000,1024.000000) scale(0.100000,-0.100000)"
fill="#000000" stroke="none">
<path d="M2359 6473 l-164 -167 -307 3 -308 2 0 -308 0 -308 -173 -172 -173
-172 173 -173 173 -173 0 -301 0 -302 53 -5 c28 -3 167 -4 308 -2 l257 3 172
-174 172 -174 173 171 173 170 228 4 c126 2 260 4 297 4 l69 1 -4 305 c-2 168
0 306 3 308 3 1 79 77 168 168 l161 167 -165 163 -165 164 0 318 0 317 -308 0
-308 0 -164 165 c-91 91 -168 165 -171 165 -3 0 -80 -75 -170 -167z m253 -192
l83 -79 -139 -144 c-77 -78 -159 -163 -182 -187 l-43 -44 -38 33 c-21 18 -60
58 -87 87 l-49 54 179 180 c98 98 182 179 186 179 4 0 44 -36 90 -79z m-582
-165 c0 -3 -14 -20 -31 -38 -17 -18 -38 -43 -46 -55 -31 -46 -6 -81 238 -327
l228 -232 -101 -102 -101 -102 -166 161 c-91 89 -192 188 -224 219 l-59 57 2
203 c0 112 3 207 6 212 5 8 254 12 254 4z m1254 -72 c3 -42 6 -113 6 -157 0
-68 -2 -78 -14 -68 -23 19 -118 25 -162 11 -29 -10 -86 -59 -224 -196 l-185
-183 -128 116 -128 115 118 122 c204 210 257 262 287 282 34 21 100 29 297 32
l126 2 7 -76z m78 -519 c78 -80 148 -155 157 -167 14 -21 11 -26 -85 -116
-157 -150 -144 -114 -144 -404 l0 -248 -101 0 -100 0 48 60 c26 33 56 74 65
92 22 41 24 135 3 185 -9 20 -68 91 -133 157 -64 67 -141 147 -172 179 l-55
57 175 175 c96 96 180 175 187 175 7 0 77 -65 155 -145z m-1462 -228 l194
-188 -85 -85 -85 -85 -209 206 -208 206 84 78 c69 65 87 76 100 67 9 -6 103
-96 209 -199z m779 -94 l114 -108 -259 -252 -259 -252 -251 -1 -251 0 -6 117
c-3 65 -4 119 -2 122 2 2 18 -11 35 -28 17 -17 42 -33 56 -36 13 -3 35 -7 49
-10 14 -3 45 -1 68 6 36 9 77 46 307 280 146 148 270 269 275 269 6 0 61 -48
124 -107z m310 -309 l61 -66 -20 -28 c-29 -40 -440 -459 -463 -471 -17 -9 -27
-3 -74 43 -30 29 -58 60 -63 69 -7 12 46 71 238 266 136 138 250 251 254 252
3 0 34 -29 67 -65z"/>
<path d="M5915 6238 c-15 -40 -116 -316 -225 -613 -109 -297 -201 -548 -205
-557 -7 -17 2 -18 113 -18 83 0 123 4 130 13 5 6 15 32 22 57 6 25 22 80 36
123 l26 77 269 0 268 0 14 -27 c8 -16 29 -71 47 -123 18 -52 38 -101 43 -107
7 -9 45 -13 128 -13 66 0 119 1 119 3 0 2 -11 32 -26 68 -91 230 -249 656
-370 996 l-69 193 -146 0 -147 0 -27 -72z m275 -458 c44 -124 84 -233 90 -242
10 -17 -2 -18 -189 -18 l-199 0 33 103 c37 112 90 261 132 369 l27 70 13 -29
c7 -15 49 -129 93 -253z"/>
<path d="M7933 6302 l-113 -3 0 -624 0 -625 192 -2 c246 -4 391 5 459 27 160
52 306 169 367 295 61 124 80 315 47 470 -48 228 -218 400 -440 444 -72 15
-315 23 -512 18z m508 -233 c104 -49 173 -133 214 -257 27 -84 18 -248 -18
-326 -80 -174 -202 -236 -461 -236 l-126 0 0 426 0 426 168 -4 c156 -3 171 -5
223 -29z"/>
<path d="M4200 5675 l0 -625 115 0 116 0 -3 440 c-2 242 -2 440 -1 440 3 0
186 -269 371 -545 96 -143 188 -277 204 -297 l30 -38 109 0 109 0 0 625 0 625
-110 0 -110 0 -2 -447 -3 -447 -95 149 c-52 81 -151 235 -220 341 -69 107
-156 241 -193 299 l-68 105 -125 0 -124 0 0 -625z"/>
<path d="M7320 5811 l0 -490 -32 -34 c-27 -28 -43 -35 -89 -41 -93 -12 -151
24 -165 101 l-6 33 -115 0 -116 0 7 -57 c20 -177 171 -289 388 -286 107 1 173
28 253 104 95 90 93 75 97 658 l3 501 -112 0 -113 0 0 -489z"/>
<path d="M4283 4639 c-69 -14 -117 -61 -132 -130 -13 -61 1 -113 43 -155 67
-67 167 -65 235 4 l36 36 -25 6 c-19 5 -32 1 -51 -17 -54 -49 -141 -36 -174
27 -31 60 -10 145 42 169 38 18 98 13 126 -9 44 -35 86 -18 51 22 -37 40 -97
59 -151 47z"/>
<path d="M4609 4617 c-52 -35 -79 -82 -79 -138 0 -60 11 -88 49 -126 101 -101
281 -25 281 120 0 46 -39 118 -79 144 -47 32 -125 32 -172 0z m139 -37 c70
-43 78 -136 17 -197 -80 -80 -198 -10 -182 108 8 59 57 107 112 108 11 1 35
-8 53 -19z"/>
<path d="M4957 4634 c-4 -4 -7 -79 -7 -166 l0 -158 30 0 30 0 0 110 0 111 48
-93 c62 -122 69 -122 136 2 l51 95 3 -112 c3 -113 3 -113 27 -113 l25 0 0 166
0 165 -32 -3 c-31 -3 -36 -10 -87 -112 l-54 -108 -56 108 c-47 91 -60 109 -81
112 -14 2 -29 0 -33 -4z"/>
<path d="M5414 4627 c-2 -7 -3 -82 -2 -167 l3 -154 25 0 25 0 -3 117 c-2 64 0
117 5 116 4 0 30 -45 57 -100 26 -54 54 -99 62 -99 12 0 93 132 111 182 5 15
10 -17 13 -97 5 -116 6 -119 28 -119 12 0 22 3 22 7 0 4 0 79 0 168 l0 160
-32 -3 c-31 -3 -36 -10 -87 -111 l-54 -108 -53 110 c-51 105 -56 111 -84 111
-17 0 -33 -6 -36 -13z"/>
<path d="M5878 4474 c-2 -91 -2 -166 -1 -167 1 -1 49 -1 107 1 105 3 106 4
106 28 0 23 -2 24 -78 24 -43 0 -81 2 -83 5 -3 2 -3 20 -1 39 l4 35 67 3 c60
3 66 5 69 26 3 21 0 22 -66 22 -38 0 -71 2 -73 4 -2 3 -3 25 -1 50 l4 45 81 3
c76 3 82 5 85 26 3 22 2 22 -107 22 l-110 0 -3 -166z"/>
<path d="M6190 4478 c0 -91 2 -167 5 -170 3 -3 17 -3 30 0 23 4 25 9 25 59 l0
54 33 -3 c27 -2 37 -11 62 -55 19 -32 38 -53 53 -56 36 -7 35 9 -3 69 -29 44
-34 59 -23 65 7 5 15 9 18 9 3 0 13 13 23 29 26 44 22 85 -12 123 -28 32 -32
33 -120 36 l-91 4 0 -164z m168 96 c53 -37 5 -104 -74 -104 l-44 0 0 53 c0 30
3 57 7 60 12 13 89 7 111 -9z"/>
<path d="M6601 4623 c-98 -48 -118 -200 -36 -272 73 -64 163 -63 229 3 40 40
40 40 16 46 -18 5 -33 0 -53 -17 -84 -69 -187 -16 -187 94 0 38 6 51 34 79 29
29 41 34 80 34 33 0 52 -6 66 -20 38 -38 89 -17 54 22 -45 49 -137 63 -203 31z"/>
<path d="M6917 4633 c-6 -12 -9 -312 -3 -322 3 -4 17 -6 31 -3 l25 4 0 164 0
164 -24 0 c-14 0 -27 -3 -29 -7z"/>
<path d="M7181 4618 c-56 -148 -114 -295 -118 -301 -3 -5 10 -7 28 -5 28 2 35
8 43 36 l9 32 74 0 74 0 15 -35 c15 -37 34 -51 58 -42 11 5 1 41 -49 169 -62
159 -64 163 -94 166 -25 3 -33 -1 -40 -20z m68 -117 c11 -32 21 -61 21 -65 0
-3 -23 -6 -51 -6 -37 0 -50 4 -47 13 3 6 13 36 22 65 10 28 21 52 25 52 5 0
18 -26 30 -59z"/>
<path d="M7460 4476 l0 -165 96 -3 c53 -2 97 -2 98 0 2 1 1 14 -2 27 -4 24 -8
25 -68 25 l-64 0 0 140 0 140 -30 0 -30 0 0 -164z"/>
<path d="M7910 4471 l0 -168 25 4 c22 5 24 10 27 72 2 36 6 65 11 64 4 -2 38
-3 77 -3 l69 0 3 -67 c3 -65 4 -68 28 -67 l25 0 0 164 0 165 -27 3 -28 3 0
-75 0 -76 -80 0 -80 0 0 75 c0 73 -1 75 -25 75 l-25 0 0 -169z"/>
<path d="M8287 4633 c-3 -5 -3 -63 -1 -131 4 -140 13 -161 76 -187 58 -23 113
-12 155 30 l33 33 0 131 0 131 -25 0 -25 0 0 -124 c0 -123 0 -125 -26 -145
-35 -27 -76 -27 -109 2 -26 22 -27 26 -28 142 -2 115 -3 120 -24 123 -11 2
-23 -1 -26 -5z"/>
<path d="M8660 4638 c0 -2 -2 -76 -3 -166 l-2 -162 96 0 c88 0 98 2 123 25 33
31 36 92 6 120 -17 16 -18 20 -5 38 8 12 15 38 15 58 0 29 -7 43 -31 63 -28
23 -39 26 -115 26 -46 0 -84 -1 -84 -2z m164 -64 c39 -39 1 -84 -71 -84 l-43
0 0 50 0 50 49 0 c32 0 55 -6 65 -16z m7 -134 c11 -6 19 -21 19 -35 0 -32 -26
-45 -89 -45 l-51 0 0 39 0 40 48 4 c26 2 48 4 50 5 2 1 12 -3 23 -8z"/>
</g>
</svg>
